<svg width="150" height="150" viewBox="0 0 630 601" fill="none" xmlns="http://www.w3.org/2000/svg"><path d="M130.585 187.564C130.585 84.3719 214.239 0.719891 317.427 0.719891C420.631 0.719891 504.271 84.3719 504.271 187.564C504.271 290.752 420.631 374.407 317.427 374.407C214.239 374.407 130.585 290.752 130.585 187.564Z" fill="white"></path><path d="M317.427 13.8339C221.311 13.8339 143.379 91.7526 143.379 187.877H491.476C491.476 91.7526 413.56 13.8339 317.427 13.8339Z" fill="#F0DD53"></path><path d="M317.427 55.4478C244.287 55.4478 184.991 114.748 184.991 187.877H449.864C449.864 114.748 390.58 55.4478 317.427 55.4478Z" fill="#F89C50"></path><path d="M317.427 100.858C269.366 100.858 230.4 139.817 230.4 187.877H404.455C404.455 139.817 365.498 100.858 317.427 100.858Z" fill="#F0532D"></path><path d="M317.427 141.059C291.574 141.059 270.61 162.025 270.61 187.877H364.254C364.254 162.025 343.278 141.059 317.427 141.059Z" fill="#7F4774"></path><path d="M317.427 361.918C413.56 361.918 491.476 284.001 491.476 187.877H143.379C143.379 284.001 221.311 361.918 317.427 361.918Z" fill="#4BA9C9"></path><path d="M71.3288 429.857H58.8594C55.6328 429.857 53.0434 432.458 53.0434 435.689V542.358C53.0434 566.154 41.0168 577.239 15.2248 577.239H6.55678C3.34211 577.239 0.714111 579.839 0.714111 583.074V595.07C0.714111 598.305 3.34211 600.906 6.55678 600.906H15.2248C55.7541 600.906 77.1674 581.11 77.1674 543.679V435.689C77.1674 432.458 74.5514 429.857 71.3288 429.857Z" fill="#4BA9C9"></path><path d="M252.656 429.857H239.89C236.671 429.857 234.055 432.458 234.055 435.689V522.974C234.055 536.334 230.511 546.919 223.178 555.331C215.656 564.002 205.768 568.227 192.904 568.227C179.851 568.227 169.847 564.054 162.322 555.449C155.015 547.162 151.456 536.53 151.456 522.974V435.689C151.456 432.458 148.843 429.857 145.628 429.857H133.163C129.92 429.857 127.319 432.458 127.319 435.689V518.859C127.319 540.035 132.76 557.261 143.403 570.018C155.062 584.138 171.712 591.291 192.904 591.291C213.919 591.291 230.511 584.079 242.23 569.893C253.024 557.018 258.5 539.838 258.5 518.859V435.689C258.5 432.458 255.887 429.857 252.656 429.857Z" fill="#4BA9C9"></path><path d="M371.505 427.124C355.008 427.124 341.173 431.714 330.225 440.828V435.384C330.225 432.157 327.597 429.556 324.381 429.556H311.6C308.381 429.556 305.768 432.157 305.768 435.384V582.726C305.768 585.941 308.381 588.55 311.6 588.55H324.381C327.597 588.55 330.225 585.941 330.225 582.726V492.2C330.225 479.233 333.84 469.232 341.302 461.621C348.753 454.033 358.613 450.345 371.505 450.345C384.358 450.345 394.305 454.565 401.958 463.262C409.36 471.673 412.965 482.249 412.965 495.588V582.726C412.965 585.941 415.578 588.55 418.797 588.55H431.261C434.5 588.55 437.101 585.941 437.101 582.726V499.552C437.101 478.565 431.638 461.394 420.866 448.541C409.108 434.328 392.493 427.124 371.505 427.124Z" fill="#4BA9C9"></path>
<path d="M495.486 495.539C497.754 482.906 503.09 472.682 511.686 464.454C521.598 454.956 533.954 450.344 549.468 450.344C564.982 450.344 577.271 454.956 587.084 464.43C595.587 472.671 600.887 482.895 603.168 495.539H495.486ZM606.656 449.691C591.695 434.723 572.514 427.123 549.623 427.123C526.079 427.123 506.602 434.984 491.738 450.506C476.931 465.947 469.432 485.731 469.432 509.276C469.432 533.276 477.095 553.154 492.196 568.364C507.298 583.571 527.143 591.291 551.147 591.291C580.52 591.291 603.168 583.334 618.426 567.624C619.498 566.514 620.116 564.996 620.075 563.448C620.044 561.891 619.403 560.412 618.27 559.342L608.835 550.368C607.72 549.312 606.231 548.811 604.67 548.756C603.122 548.803 601.642 549.46 600.567 550.579C595.634 555.796 588.078 560.034 578.084 563.19C568.979 566.123 559.92 567.614 551.147 567.614C534.52 567.614 521.476 562.775 511.272 552.812C502.307 544.048 497.011 533.022 495.188 519.219H622.611C625.236 519.219 627.515 517.466 628.239 514.936C628.876 512.594 629.206 509.82 629.206 506.703C629.206 483.864 621.618 464.687 606.656 449.691" fill="#4BA9C9"></path>
  </svg>